<?xml version="1.0" encoding="utf-8"?>
<!-- Generator: Adobe Illustrator 16.0.0, SVG Export Plug-In . SVG Version: 6.00 Build 0)  -->
<!DOCTYPE svg PUBLIC "-//W3C//DTD SVG 1.1//EN" "http://www.w3.org/Graphics/SVG/1.1/DTD/svg11.dtd">
<svg version="1.1" id="圖層_1" xmlns="http://www.w3.org/2000/svg" xmlns:xlink="http://www.w3.org/1999/xlink" x="0px" y="0px"
	 width="40px" height="240px" viewBox="0 0 40 240" enable-background="new 0 0 40 240" xml:space="preserve">
<circle fill="#D93039" cx="20" cy="19" r="6"/>
<circle fill="#525152" cx="32.083" cy="70.915" r="4"/>
<circle fill="#525152" cx="8.167" cy="47.041" r="4"/>
<circle fill="#525152" cx="32.083" cy="110.915" r="4"/>
<circle fill="#525152" cx="8.167" cy="87.041" r="4"/>
<circle fill="#525152" cx="20.125" cy="98.978" r="4"/>
<circle fill="#D93039" cx="32.083" cy="150.915" r="4"/>
<circle fill="#D93039" cx="8.167" cy="127.041" r="4"/>
<circle fill="#D93039" cx="8.167" cy="150.915" r="4"/>
<circle fill="#D93039" cx="32.083" cy="127.041" r="4"/>
<circle fill="#525152" cx="32.021" cy="191.52" r="4"/>
<circle fill="#525152" cx="8.104" cy="167.646" r="4"/>
<circle fill="#525152" cx="8.104" cy="191.52" r="4"/>
<circle fill="#525152" cx="32.021" cy="167.646" r="4"/>
<circle fill="#525152" cx="20" cy="179" r="4"/>
<g>
	<circle fill="#525152" cx="12.5" cy="207.041" r="4"/>
	<circle fill="#525152" cx="12.5" cy="230.915" r="4"/>
	<circle fill="#525152" cx="12.5" cy="218.978" r="4"/>
	<circle fill="#525152" cx="27.5" cy="207.041" r="4"/>
	<circle fill="#525152" cx="27.5" cy="230.915" r="4"/>
	<circle fill="#525152" cx="27.5" cy="218.978" r="4"/>
</g>
</svg>
